<svg width="512" height="512" viewBox="0 0 512 512" fill="none" xmlns="http://www.w3.org/2000/svg">
  <!-- Background -->
  <rect width="512" height="512" rx="120" fill="url(#bgGradient)"/>
  
  <!-- Wallet -->
  <rect x="120" y="180" width="272" height="152" rx="20" fill="white" stroke="#2E7D32" stroke-width="8"/>
  <rect x="120" y="180" width="272" height="40" rx="20" fill="#4CAF50" stroke="#2E7D32" stroke-width="8"/>
  
  <!-- Money Bills -->
  <rect x="140" y="200" width="60" height="35" rx="4" fill="#FFD700"/>
  <rect x="210" y="200" width="60" height="35" rx="4" fill="#FFD700"/>
  <rect x="280" y="200" width="60" height="35" rx="4" fill="#FFD700"/>
  <rect x="350" y="200" width="60" height="35" rx="4" fill="#FFD700"/>
  
  <!-- Chart -->
  <rect x="140" y="260" width="25" height="40" rx="3" fill="#2196F3"/>
  <rect x="175" y="260" width="25" height="60" rx="3" fill="#2196F3"/>
  <rect x="210" y="260" width="25" height="30" rx="3" fill="#2196F3"/>
  <rect x="245" y="260" width="25" height="50" rx="3" fill="#2196F3"/>
  <rect x="280" y="260" width="25" height="70" rx="3" fill="#2196F3"/>
  <rect x="315" y="260" width="25" height="45" rx="3" fill="#2196F3"/>
  <rect x="350" y="260" width="25" height="55" rx="3" fill="#2196F3"/>
  
  <!-- Plus -->
  <circle cx="256" cy="380" r="25" fill="#FF5722"/>
  <rect x="246" y="370" width="20" height="20" rx="10" fill="white"/>
  <rect x="256" y="360" width="20" height="40" rx="10" fill="white"/>
  
  <!-- Dollar -->
  <text x="256" y="320" text-anchor="middle" font-family="Arial, sans-serif" font-size="24" font-weight="bold" fill="#2E7D32">$</text>
  
  <defs>
    <linearGradient id="bgGradient" x1="0%" y1="0%" x2="100%" y2="100%">
      <stop offset="0%" style="stop-color:#4CAF50;stop-opacity:1" />
      <stop offset="100%" style="stop-color:#2E7D32;stop-opacity:1" />
    </linearGradient>
  </defs>
</svg> 